<svg width="30" height="31" viewBox="0 0 30 31" fill="none" xmlns="http://www.w3.org/2000/svg">
<path d="M18.7537 5.5C19.0775 5.5 19.4837 5.585 19.81 5.665C20.9475 5.94 22.2963 6.28125 23.2537 7C24.145 7.66875 24.8375 8.835 25.3725 10.02C26.485 12.4888 27.2587 15.78 27.5262 18.2825C27.6537 19.47 27.685 20.665 27.4562 21.4688C27.3438 21.8638 27.1 22.1613 26.9287 22.3438C26.4062 22.8975 25.7338 23.3112 25.0688 23.6875L24.7388 23.8737C24.5214 23.9947 24.3026 24.113 24.0825 24.2288L23.43 24.5662L22.5338 25.0125L21.8125 25.3675C21.5486 25.4997 21.2463 25.5342 20.9594 25.465C20.6724 25.3957 20.4192 25.2271 20.2447 24.9891C20.0701 24.751 19.9854 24.4589 20.0056 24.1644C20.0258 23.8699 20.1496 23.592 20.355 23.38L19.8125 22.295C18.2526 22.7691 16.6304 23.0067 15 23C13.2875 23 11.6537 22.75 10.1875 22.295L9.64625 23.3775C9.85245 23.5891 9.977 23.867 9.99782 24.1617C10.0186 24.4565 9.93438 24.7491 9.75998 24.9876C9.58559 25.2261 9.33233 25.3951 9.04516 25.4647C8.75798 25.5342 8.45545 25.4998 8.19125 25.3675L7.51125 25.03C6.75625 24.6575 6.00125 24.285 5.26625 23.8737C4.49875 23.445 3.685 22.9888 3.07625 22.3425C2.83332 22.0969 2.65248 21.797 2.54875 21.4675C2.31875 20.665 2.35125 19.4713 2.4775 18.2825C2.745 15.78 3.51875 12.4888 4.6325 10.02C5.16625 8.835 5.85875 7.66875 6.75 7C7.7075 6.28125 9.05625 5.94 10.1937 5.665C10.52 5.585 10.925 5.5 11.25 5.5C11.4298 5.49984 11.6075 5.53847 11.771 5.61324C11.9344 5.68801 12.0799 5.79716 12.1973 5.93325C12.3148 6.06935 12.4015 6.22918 12.4516 6.40184C12.5017 6.5745 12.5139 6.75593 12.4875 6.93375C13.3193 6.81067 14.1591 6.74926 15 6.75C15.8638 6.75 16.7075 6.8125 17.5175 6.935C17.4909 6.75708 17.503 6.57552 17.5529 6.4027C17.6029 6.22989 17.6896 6.0699 17.8071 5.93366C17.9246 5.79743 18.0701 5.68815 18.2337 5.61331C18.3973 5.53847 18.5739 5.49982 18.7537 5.5ZM20.4463 8.45375C20.2588 8.39375 20.2138 8.42 20.1463 8.5325L20.0688 8.6725C19.8667 9.01883 19.56 9.29209 19.1927 9.45293C18.8254 9.61377 18.4165 9.65389 18.025 9.5675C17.0309 9.3541 16.0168 9.24766 15 9.25C13.935 9.25 12.9163 9.3625 11.975 9.5675C11.5835 9.65389 11.1746 9.61377 10.8073 9.45293C10.44 9.29209 10.1333 9.01883 9.93125 8.6725L9.85375 8.53375C9.7875 8.42125 9.7425 8.395 9.55625 8.45375C9.11125 8.595 8.63375 8.74625 8.25 9C7.89125 9.26875 7.4125 9.9375 6.91125 11.0487C5.95375 13.17 5.20375 16.3038 4.96375 18.5488C4.91375 19.0225 4.8875 19.4288 4.88125 19.7638V20.1313C4.88625 20.3538 4.9025 20.53 4.925 20.6588C5.2425 20.9688 5.635 21.2125 6.02875 21.4363L6.88125 21.9075L7.43875 22.2013L7.89375 21.2912C7.67346 21.086 7.53466 20.8081 7.50287 20.5087C7.47108 20.2093 7.54844 19.9084 7.72072 19.6615C7.893 19.4146 8.14863 19.2381 8.44061 19.1646C8.73259 19.091 9.04131 19.1254 9.31 19.2613C10.83 20.025 12.8075 20.5 15 20.5C17.1912 20.5 19.17 20.0225 20.69 19.2625C20.9472 19.1336 21.241 19.0975 21.5218 19.16C21.8026 19.2226 22.0532 19.3801 22.2314 19.606C22.4095 19.8319 22.5043 20.1123 22.4997 20.4C22.4952 20.6876 22.3915 20.9649 22.2062 21.185L22.1062 21.2912L22.5612 22.2038C22.9338 22.0113 23.3075 21.8075 23.6825 21.6C24.17 21.33 24.6825 21.0463 25.0788 20.6588C25.1012 20.53 25.1162 20.3538 25.1225 20.1313V19.7638C25.1124 19.3573 25.0848 18.9516 25.04 18.5475C24.8 16.3038 24.05 13.17 23.0925 11.0475C22.5925 9.9375 22.1125 9.26875 21.755 9C21.37 8.74625 20.8925 8.595 20.4463 8.45375ZM10.9375 13.625C11.5177 13.625 12.0741 13.8555 12.4843 14.2657C12.8945 14.6759 13.125 15.2323 13.125 15.8125C13.125 16.3927 12.8945 16.9491 12.4843 17.3593C12.0741 17.7695 11.5177 18 10.9375 18C10.3573 18 9.80094 17.7695 9.3907 17.3593C8.98047 16.9491 8.75 16.3927 8.75 15.8125C8.75 15.2323 8.98047 14.6759 9.3907 14.2657C9.80094 13.8555 10.3573 13.625 10.9375 13.625ZM19.0625 13.625C19.6427 13.625 20.1991 13.8555 20.6093 14.2657C21.0195 14.6759 21.25 15.2323 21.25 15.8125C21.25 16.3927 21.0195 16.9491 20.6093 17.3593C20.1991 17.7695 19.6427 18 19.0625 18C18.4823 18 17.9259 17.7695 17.5157 17.3593C17.1055 16.9491 16.875 16.3927 16.875 15.8125C16.875 15.2323 17.1055 14.6759 17.5157 14.2657C17.9259 13.8555 18.4823 13.625 19.0625 13.625Z" fill="black"/>
</svg>
