<svg width="30" height="31" viewBox="0 0 30 31" fill="none" xmlns="http://www.w3.org/2000/svg">
<path fill-rule="evenodd" clip-rule="evenodd" d="M27.3 8.07C27.3545 7.73915 27.3193 7.39972 27.1981 7.0871C27.0768 6.77447 26.874 6.50008 26.6106 6.29252C26.3473 6.08495 26.0331 5.95181 25.7008 5.90695C25.3685 5.8621 25.0302 5.90718 24.7213 6.0375L3.34625 15.0375C1.85625 15.665 1.78 17.82 3.34625 18.47C4.89715 19.1168 6.47065 19.708 8.06375 20.2425C9.52375 20.725 11.1162 21.1713 12.3925 21.2975C12.7412 21.715 13.18 22.1175 13.6275 22.485C14.3113 23.0475 15.1337 23.6262 15.9837 24.1812C17.6862 25.2937 19.575 26.3575 20.8475 27.05C22.3687 27.875 24.19 26.925 24.4625 25.2663L27.3 8.07ZM5.7425 16.7412L24.6475 8.78125L22 24.8312C20.7513 24.1525 18.9525 23.1362 17.35 22.0887C16.6114 21.6146 15.8983 21.1018 15.2137 20.5525C15.0308 20.403 14.8531 20.2471 14.6812 20.085L19.6325 15.135C19.8671 14.9006 19.9989 14.5827 19.999 14.2511C19.9991 13.9195 19.8675 13.6014 19.6331 13.3669C19.3987 13.1323 19.0808 13.0005 18.7492 13.0004C18.4176 13.0003 18.0996 13.1319 17.865 13.3663L12.4438 18.7875C11.5262 18.67 10.2487 18.33 8.84625 17.8675C7.80212 17.5197 6.76758 17.1437 5.74375 16.74L5.7425 16.7412Z" fill="black"/>
</svg>
