<svg width="31" height="31" viewBox="0 0 31 31" fill="black" xmlns="http://www.w3.org/2000/svg">
<path d="M21.9167 4.25C23.1996 4.25 24.4333 4.74304 25.3628 5.62715C26.2922 6.51127 26.8464 7.7188 26.9105 9L26.9167 9.25V21.75C26.9167 23.0328 26.4237 24.2665 25.5396 25.196C24.6555 26.1255 23.4479 26.6796 22.1667 26.7438L21.9167 26.75H9.41675C8.13394 26.75 6.90021 26.257 5.97073 25.3728C5.04125 24.4887 4.48714 23.2812 4.423 22L4.41675 21.75V9.25C4.41675 7.9672 4.90979 6.73346 5.7939 5.80399C6.67801 4.87451 7.88555 4.32039 9.16675 4.25625L9.41675 4.25H21.9167ZM21.9167 6.75H9.41675C8.78603 6.7498 8.17854 6.98801 7.71606 7.41687C7.25359 7.84573 6.9703 8.43356 6.923 9.0625L6.91675 9.25V21.75C6.91655 22.3807 7.15476 22.9882 7.58362 23.4507C8.01248 23.9132 8.6003 24.1964 9.22925 24.2438L9.41675 24.25H21.9167C22.5475 24.2502 23.155 24.012 23.6174 23.5831C24.0799 23.1543 24.3632 22.5664 24.4105 21.9375L24.4167 21.75V9.25C24.4169 8.61928 24.1787 8.01179 23.7499 7.54931C23.321 7.08684 22.7332 6.80355 22.1042 6.75625L21.9167 6.75ZM19.983 12.0312L20.2517 11.6812C20.4357 11.4054 20.7218 11.214 21.0469 11.1491C21.3721 11.0841 21.7097 11.151 21.9855 11.335C22.2613 11.519 22.4528 11.805 22.5177 12.1302C22.5826 12.4553 22.5157 12.7929 22.3317 13.0688C21.8028 13.8362 21.188 14.5407 20.4992 15.1687C20.3209 15.3335 20.1375 15.4928 19.9492 15.6462C21.3217 16.3762 22.4367 17.4963 23.0342 18.6912C23.1137 18.8386 23.1628 19.0004 23.1785 19.1671C23.1942 19.3337 23.1763 19.5019 23.1258 19.6615C23.0754 19.8211 22.9933 19.9689 22.8846 20.0962C22.7759 20.2235 22.6428 20.3277 22.493 20.4026C22.3433 20.4774 22.1801 20.5215 22.013 20.5321C21.8459 20.5426 21.6784 20.5195 21.5205 20.4642C21.3625 20.4088 21.2172 20.3222 21.0934 20.2096C20.9695 20.097 20.8695 19.9607 20.7992 19.8088C20.228 18.6687 18.7492 17.5538 17.1792 17.325L16.9167 17.2962V19.25C16.9167 19.5815 16.7851 19.8995 16.5506 20.1339C16.3162 20.3683 15.9983 20.5 15.6667 20.5C11.3042 20.5 8.16675 16.915 8.16675 12.375C8.16675 12.0435 8.29844 11.7255 8.53286 11.4911C8.76729 11.2567 9.08523 11.125 9.41675 11.125C9.74827 11.125 10.0662 11.2567 10.3006 11.4911C10.5351 11.7255 10.6667 12.0435 10.6667 12.375C10.6667 14.7175 11.8892 16.9988 14.1605 17.7625L14.4167 17.8412V12.375C14.4167 11.6637 14.9892 11.1637 15.6667 11.125C15.9485 11.1248 16.222 11.2197 16.443 11.3944C16.664 11.5691 16.8195 11.8133 16.8842 12.0875L16.9092 12.2288L16.918 14.6038C17.538 14.3462 18.1742 13.9125 18.803 13.3313C19.238 12.9313 19.6205 12.4913 19.983 12.0312Z" />
</svg>
