<svg width="31" height="31" viewBox="0 0 31 31" fill="none" xmlns="http://www.w3.org/2000/svg">
<path fill-rule="evenodd" clip-rule="evenodd" d="M25.0247 6.32375C25.1328 6.20014 25.2155 6.05646 25.2681 5.90089C25.3207 5.74533 25.3421 5.58094 25.3311 5.4171C25.3201 5.25326 25.277 5.09319 25.2042 4.94602C25.1313 4.79885 25.0302 4.66747 24.9066 4.55937C24.783 4.45128 24.6393 4.36859 24.4838 4.31603C24.3282 4.26346 24.1638 4.24205 24 4.25302C23.8361 4.26399 23.6761 4.30712 23.5289 4.37996C23.3817 4.45279 23.2503 4.55389 23.1422 4.6775L16.7547 11.9775L11.3335 4.75C11.2171 4.59476 11.0661 4.46875 10.8925 4.38197C10.7189 4.29518 10.5276 4.25 10.3335 4.25H5.3335C5.10136 4.25 4.8738 4.31464 4.67633 4.43669C4.47886 4.55873 4.31928 4.73335 4.21546 4.94098C4.11165 5.14862 4.0677 5.38105 4.08855 5.61226C4.10939 5.84346 4.19421 6.06429 4.3335 6.25L12.3797 16.9775L5.64225 24.6775C5.53415 24.8011 5.45146 24.9448 5.3989 25.1004C5.34633 25.2559 5.32493 25.4203 5.33589 25.5842C5.34686 25.748 5.39 25.9081 5.46283 26.0552C5.53566 26.2024 5.63676 26.3338 5.76037 26.4419C5.88398 26.55 6.02766 26.6327 6.18323 26.6852C6.33879 26.7378 6.50319 26.7592 6.66702 26.7482C6.83086 26.7373 6.99093 26.6941 7.1381 26.6213C7.28527 26.5485 7.41665 26.4474 7.52475 26.3237L13.9122 19.0225L19.3335 26.25C19.4499 26.4052 19.6009 26.5312 19.7745 26.618C19.948 26.7048 20.1394 26.75 20.3335 26.75H25.3335C25.5656 26.75 25.7932 26.6854 25.9907 26.5633C26.1881 26.4413 26.3477 26.2666 26.4515 26.059C26.5553 25.8514 26.5993 25.6189 26.5784 25.3877C26.5576 25.1565 26.4728 24.9357 26.3335 24.75L18.2872 14.0225L25.0247 6.32375ZM20.9585 24.25L7.8335 6.75H9.7085L22.8335 24.25H20.9585Z" fill="black"/>
</svg>
